<?xml version="1.0" encoding="utf-8"?>
<!-- Generator: Adobe Illustrator 15.0.0, SVG Export Plug-In . SVG Version: 6.00 Build 0)  -->
<!DOCTYPE svg PUBLIC "-//W3C//DTD SVG 1.1//EN" "http://www.w3.org/Graphics/SVG/1.1/DTD/svg11.dtd">
<svg version="1.1" id="Layer_1" xmlns="http://www.w3.org/2000/svg" xmlns:xlink="http://www.w3.org/1999/xlink" x="0px" y="0px"
	 width="584px" height="60px" viewBox="0 0 584 60" enable-background="new 0 0 584 60" xml:space="preserve">
<g>
	<path fill="#0079C1" d="M216.251,10.398c-0.181,0.049-0.379,0.088-0.596,0.119c-0.216,0.031-0.41,0.047-0.577,0.047
		c-0.594,0-1.042-0.159-1.349-0.477c-0.308-0.318-0.461-0.828-0.461-1.529V5.481h-0.659V4.662h0.659V2.998h0.973v1.664h2.01v0.819
		h-2.01v2.638c0,0.303,0.009,0.541,0.021,0.712c0.015,0.171,0.062,0.331,0.146,0.479c0.075,0.139,0.18,0.238,0.313,0.303
		s0.337,0.096,0.609,0.096c0.158,0,0.324-0.023,0.498-0.07c0.171-0.046,0.296-0.085,0.372-0.116h0.05V10.398z"/>
	<path fill="#0079C1" d="M225.877,10.45h-0.974V7.154c0-0.248-0.012-0.488-0.035-0.721c-0.022-0.23-0.071-0.415-0.143-0.555
		c-0.08-0.147-0.193-0.26-0.342-0.336c-0.149-0.076-0.362-0.113-0.643-0.113c-0.273,0-0.545,0.067-0.818,0.204
		c-0.273,0.136-0.545,0.31-0.818,0.521c0.01,0.08,0.018,0.172,0.025,0.277s0.011,0.21,0.011,0.313v3.705h-0.974V7.154
		c0-0.256-0.013-0.498-0.034-0.729c-0.022-0.229-0.071-0.412-0.143-0.551c-0.081-0.148-0.194-0.26-0.344-0.334
		c-0.148-0.074-0.362-0.111-0.642-0.111c-0.267,0-0.531,0.065-0.801,0.196c-0.268,0.131-0.533,0.298-0.801,0.503v4.321h-0.975V4.662
		h0.975v0.643c0.305-0.253,0.608-0.449,0.91-0.592c0.304-0.141,0.623-0.212,0.966-0.212c0.394,0,0.729,0.083,1.003,0.248
		c0.274,0.167,0.479,0.396,0.614,0.69c0.393-0.332,0.753-0.572,1.078-0.718c0.324-0.147,0.671-0.221,1.041-0.221
		c0.636,0,1.104,0.192,1.407,0.577c0.302,0.387,0.454,0.924,0.454,1.615V10.45z"/>
</g>
<path fill="#0079C1" d="M179.673,13.805c-2.259-1.26-5.79-1.896-10.623-1.896c-2.391,0-4.792,0.191-7.202,0.564
	c-1.77,0.271-1.951,0.316-3.05,0.556c-2.262,0.493-2.61,2.756-2.61,2.756l-0.726,2.987c-0.412,1.909,0.676,1.83,1.16,1.682
	c0.987-0.298,1.522-0.594,3.536-1.05c1.925-0.437,3.959-0.764,5.582-0.751c2.38,0,4.19,0.262,5.394,0.764
	c1.204,0.524,1.8,1.419,1.8,2.697c0.004,0.305,0.012,0.592-0.098,0.842c-0.1,0.234-0.289,0.461-0.858,0.537
	c-3.397,0.202-5.835,0.513-8.771,0.94c-2.896,0.408-5.432,1.107-7.551,2.075c-2.259,1.002-3.949,2.342-5.114,4.042
	c-1.134,1.707-1.703,3.773-1.707,6.209c0,2.301,0.827,4.178,2.428,5.635c1.619,1.438,3.725,2.15,6.272,2.15
	c1.592-0.012,2.838-0.126,3.731-0.35c0.884-0.223,1.848-0.54,2.866-0.98c0.761-0.318,1.582-0.778,2.448-1.355
	c0.868-0.579,1.47-0.99,2.24-1.495l0.028,0.048l-0.217,0.957c-0.001,0.01-0.015,0.015-0.015,0.023l0.007,0.018
	c-0.248,1.153,0.445,2.112,1.588,2.226l0.014,0.02h0.101l0.004,0.006c0.759,0,3.36-0.002,4.576-0.006h0.85
	c0.056,0,0.062-0.017,0.084-0.029c1.166-0.144,2.283-1.094,2.547-2.233l4.343-18.745c0.1-0.441,0.179-0.95,0.226-1.535
	c0.055-0.594,0.118-1.08,0.1-1.432C183.064,17.026,181.925,15.065,179.673,13.805z M169.15,36.141
	c-0.738,0.465-1.518,0.863-2.335,1.202c-1.098,0.442-2.139,0.675-3.102,0.675c-1.479,0-2.614-0.209-3.383-0.656
	c-0.769-0.424-1.172-1.161-1.158-2.216c0-1.218,0.28-2.163,0.862-2.904c0.586-0.713,1.457-1.287,2.537-1.715
	c1.074-0.364,2.396-0.664,3.92-0.879c1.356-0.171,4.037-0.479,4.38-0.481c0.344-0.004,0.571-0.192,0.418,0.722
	c-0.067,0.396-0.842,3.575-1.196,5.02C169.99,35.341,169.414,35.972,169.15,36.141z"/>
<path fill="#00447C" d="M104.958,12.322c-1.273,0-2.945,1.031-3.736,2.277c0,0-8.521,14.609-9.358,16.07
	c-0.455,0.785-0.916,0.286-0.993-0.006c-0.062-0.355-2.641-15.969-2.641-15.969c-0.29-1.257-1.604-2.336-3.245-2.331l-5.313,0.009
	c-1.281,0-2.08,1.025-1.796,2.266c0,0,4.062,23.024,4.854,28.439c0.395,2.994-0.041,3.525-0.041,3.525l-5.266,9.183
	c-0.771,1.244-0.349,2.265,0.926,2.265l6.158-0.005c1.274,0,2.964-1.015,3.723-2.262l23.689-40.067c0,0,2.267-3.424,0.177-3.395
	C110.671,12.343,104.958,12.322,104.958,12.322"/>
<path fill="#00447C" d="M30.172,20.467c-1.792,1.311-4.277,1.969-7.503,1.969H21.21c-1.285,0-2.096-1.02-1.812-2.271l1.79-7.715
	c0.272-1.242,1.555-2.273,2.84-2.262l1.945-0.012c2.274,0,4.002,0.39,5.168,1.163c1.149,0.753,1.733,1.942,1.712,3.542
	C32.888,17.288,31.975,19.152,30.172,20.467 M43.014,8.577c-0.739-1.442-1.847-2.612-3.261-3.497
	c-1.467-0.905-3.173-1.529-5.162-1.905c-2.001-0.358-4.338-0.534-7.02-0.559L15.157,2.625c-1.29,0.016-2.554,1.027-2.852,2.268
	l-8.37,36.391c-0.289,1.245,0.518,2.274,1.802,2.274h5.947c1.286,0,2.56-1.003,2.849-2.274l2.05-8.831
	c0.273-1.235,1.544-2.257,2.833-2.257h1.7c7.273-0.007,12.915-1.495,16.969-4.473c4.048-2.973,6.072-6.912,6.063-11.784
	C44.157,11.798,43.787,10.008,43.014,8.577"/>
<path fill="#0079C1" d="M138.148,20.615c-1.782,1.296-4.283,1.946-7.501,1.946h-1.48c-1.279,0.015-2.106-1.021-1.803-2.261
	l1.784-7.727c0.266-1.223,1.565-2.262,2.827-2.252l1.955-0.01c2.282,0.01,3.989,0.392,5.168,1.151
	c1.159,0.769,1.721,1.958,1.729,3.546C140.833,17.429,139.938,19.289,138.148,20.615 M150.984,8.709
	c-0.741-1.441-1.86-2.602-3.275-3.506c-1.45-0.902-3.175-1.531-5.171-1.898c-1.974-0.347-4.32-0.545-6.994-0.551L123.102,2.76
	c-1.281,0.022-2.538,1.029-2.834,2.268l-8.364,36.402c-0.306,1.236,0.525,2.268,1.784,2.261l5.97-0.011
	c1.267,0.011,2.557-1.014,2.855-2.25l2.018-8.834c0.283-1.238,1.57-2.275,2.857-2.257h1.696c7.282,0,12.929-1.496,16.972-4.475
	c4.033-2.993,6.062-6.919,6.062-11.802C152.105,11.93,151.742,10.135,150.984,8.709"/>
<path fill="#00447C" d="M71.679,13.776c-2.258-1.26-5.789-1.896-10.622-1.896c-2.391,0-4.792,0.189-7.204,0.564
	c-1.771,0.27-1.95,0.314-3.049,0.554c-2.263,0.494-2.61,2.757-2.61,2.757l-0.727,2.987c-0.411,1.909,0.679,1.831,1.161,1.682
	c0.985-0.298,1.523-0.593,3.538-1.05c1.922-0.436,3.958-0.762,5.58-0.75c2.382,0,4.19,0.26,5.394,0.762
	c1.204,0.525,1.797,1.42,1.797,2.698c0.008,0.305,0.014,0.593-0.093,0.842c-0.1,0.235-0.292,0.461-0.861,0.536
	c-3.394,0.205-5.831,0.514-8.771,0.941c-2.897,0.408-5.431,1.107-7.551,2.074c-2.259,1.003-3.947,2.346-5.111,4.044
	c-1.138,1.706-1.707,3.772-1.709,6.209c0,2.3,0.828,4.178,2.426,5.634c1.621,1.438,3.724,2.151,6.272,2.151
	c1.592-0.012,2.837-0.128,3.734-0.35c0.883-0.225,1.848-0.54,2.862-0.98c0.763-0.318,1.582-0.78,2.451-1.356
	c0.866-0.578,1.47-0.989,2.244-1.494l0.024,0.047l-0.217,0.956c-0.002,0.01-0.014,0.016-0.014,0.026l0.009,0.016
	c-0.248,1.155,0.443,2.113,1.585,2.225l0.014,0.021h0.1l0.003,0.008c0.76,0,3.363-0.004,4.576-0.008h0.849
	c0.057,0,0.066-0.019,0.083-0.03c1.169-0.147,2.283-1.096,2.549-2.231l4.343-18.747c0.098-0.439,0.178-0.949,0.222-1.534
	c0.058-0.594,0.122-1.08,0.104-1.432C75.071,16.998,73.93,15.037,71.679,13.776z M61.156,36.113
	c-0.738,0.465-1.517,0.861-2.334,1.201c-1.098,0.441-2.143,0.675-3.104,0.675c-1.474,0-2.613-0.21-3.382-0.655
	c-0.768-0.425-1.172-1.161-1.16-2.218c0-1.215,0.284-2.163,0.866-2.903c0.586-0.714,1.454-1.288,2.534-1.716
	c1.077-0.365,2.401-0.662,3.922-0.877c1.356-0.171,4.04-0.479,4.382-0.483c0.34-0.002,0.569-0.191,0.416,0.722
	c-0.066,0.396-0.841,3.577-1.196,5.021C61.992,35.314,61.416,35.945,61.156,36.113z"/>
<g>
	<g>
		<path fill="#0079C1" d="M200.177,3.054h-5.321c-0.003,0-0.006,0.001-0.008,0.001l-0.003-0.001c-1.218,0-2.454,0.933-2.799,2.12
			c-0.015,0.049-0.038,0.094-0.05,0.144c0,0-0.127,0.579-0.347,1.58l-7.309,33.13c-0.169,0.749-0.282,1.237-0.316,1.364l0.014,0.019
			c-0.253,1.157,0.443,2.115,1.586,2.223l0.016,0.021h5.522c1.21,0,2.438-0.924,2.794-2.096c0.018-0.057,0.044-0.11,0.058-0.167
			l7.973-36.076l-0.012-0.004C202.245,4.078,201.45,3.054,200.177,3.054z"/>
	</g>
</g>
<g>
	<path fill="#717073" d="M249.15,3.608v54.442h-4.073V3.608H249.15z"/>
</g>
<g>
	<path fill="#717073" d="M283.907,10.975l10.206,27.216l10.251-27.216h5.896v32.387h-4.082V16.418h-0.091l-10.115,26.943h-3.674
		l-10.115-26.943h-0.091v26.943h-4.082V10.975H283.907z"/>
	<path fill="#717073" d="M333.393,41.864c-1.754,1.331-3.961,1.996-6.622,1.996c-1.875,0-3.5-0.303-4.876-0.907
		s-2.533-1.451-3.47-2.54c-0.938-1.089-1.641-2.389-2.109-3.901c-0.469-1.512-0.733-3.159-0.794-4.943
		c0-1.784,0.272-3.417,0.816-4.899c0.545-1.48,1.308-2.767,2.291-3.855c0.982-1.088,2.146-1.935,3.492-2.54
		c1.346-0.604,2.819-0.907,4.423-0.907c2.086,0,3.817,0.432,5.193,1.293c1.376,0.862,2.479,1.958,3.312,3.288
		c0.831,1.331,1.406,2.783,1.724,4.354c0.317,1.573,0.445,3.07,0.386,4.491h-17.555c-0.03,1.028,0.091,2.003,0.363,2.926
		s0.71,1.739,1.315,2.449c0.604,0.711,1.376,1.277,2.313,1.701c0.937,0.424,2.041,0.635,3.311,0.635
		c1.634,0,2.972-0.378,4.015-1.134s1.73-1.905,2.063-3.447h3.811C336.28,38.554,335.146,40.534,333.393,41.864z M332.463,26.806
		c-0.348-0.816-0.816-1.52-1.406-2.109c-0.589-0.59-1.285-1.059-2.086-1.406c-0.802-0.348-1.687-0.521-2.653-0.521
		c-0.998,0-1.898,0.174-2.699,0.521c-0.802,0.348-1.49,0.824-2.063,1.429c-0.575,0.605-1.028,1.309-1.361,2.109
		c-0.333,0.802-0.529,1.655-0.59,2.562h13.472C333.015,28.483,332.811,27.622,332.463,26.806z"/>
	<path fill="#717073" d="M358.249,43.361v-3.175h-0.091c-0.635,1.3-1.633,2.238-2.993,2.812c-1.36,0.574-2.857,0.862-4.49,0.862
		c-1.814,0-3.396-0.333-4.74-0.998c-1.346-0.665-2.465-1.557-3.356-2.676c-0.893-1.119-1.565-2.419-2.019-3.901
		c-0.454-1.481-0.681-3.054-0.681-4.717s0.219-3.235,0.658-4.718c0.438-1.481,1.104-2.773,1.995-3.878
		c0.892-1.104,2.011-1.98,3.356-2.631s2.91-0.976,4.695-0.976c0.604,0,1.254,0.062,1.95,0.182c0.695,0.121,1.391,0.325,2.087,0.612
		c0.695,0.288,1.353,0.666,1.973,1.134c0.619,0.47,1.141,1.052,1.564,1.747h0.091V10.975h3.855v32.387H358.249z M344.393,35.038
		c0.287,1.043,0.726,1.973,1.315,2.789c0.589,0.816,1.345,1.468,2.268,1.951c0.922,0.483,2.003,0.726,3.243,0.726
		c1.3,0,2.404-0.257,3.312-0.771c0.907-0.514,1.647-1.187,2.223-2.019c0.573-0.831,0.989-1.775,1.247-2.835
		c0.257-1.058,0.386-2.132,0.386-3.22c0-1.149-0.137-2.261-0.408-3.334c-0.272-1.073-0.703-2.019-1.293-2.835
		s-1.354-1.475-2.291-1.974s-2.071-0.748-3.401-0.748c-1.301,0-2.404,0.257-3.312,0.771c-0.907,0.515-1.633,1.195-2.177,2.042
		c-0.545,0.847-0.938,1.813-1.18,2.902c-0.242,1.089-0.363,2.208-0.363,3.356C343.961,32.929,344.104,33.995,344.393,35.038z"/>
	<path fill="#717073" d="M368.273,15.692v-4.718h3.855v4.718H368.273z M372.129,19.911v23.45h-3.855v-23.45H372.129z"/>
	<path fill="#717073" d="M396.122,43.86c-0.998,0-1.791-0.28-2.381-0.839c-0.59-0.56-0.885-1.475-0.885-2.744
		c-1.059,1.27-2.291,2.185-3.696,2.744c-1.406,0.559-2.926,0.839-4.559,0.839c-1.06,0-2.057-0.113-2.994-0.34
		c-0.938-0.228-1.762-0.604-2.472-1.135c-0.711-0.528-1.271-1.209-1.679-2.041c-0.408-0.831-0.612-1.837-0.612-3.017
		c0-1.33,0.227-2.418,0.681-3.266c0.453-0.846,1.05-1.534,1.792-2.063c0.74-0.529,1.587-0.93,2.54-1.202
		c0.952-0.272,1.928-0.499,2.925-0.681c1.059-0.211,2.064-0.37,3.017-0.476c0.953-0.106,1.792-0.257,2.518-0.454
		c0.726-0.196,1.3-0.483,1.724-0.861c0.423-0.378,0.635-0.931,0.635-1.656c0-0.846-0.158-1.526-0.476-2.041
		c-0.318-0.514-0.727-0.907-1.225-1.179c-0.499-0.272-1.06-0.454-1.679-0.545c-0.62-0.091-1.232-0.136-1.837-0.136
		c-1.633,0-2.994,0.311-4.082,0.93c-1.089,0.62-1.679,1.792-1.77,3.516h-3.855c0.061-1.452,0.363-2.677,0.907-3.675
		c0.544-0.997,1.271-1.806,2.177-2.427c0.907-0.619,1.951-1.065,3.13-1.338c1.18-0.271,2.419-0.408,3.72-0.408
		c1.059,0,2.109,0.076,3.152,0.227c1.043,0.152,1.988,0.462,2.835,0.931s1.526,1.127,2.041,1.973
		c0.514,0.847,0.771,1.95,0.771,3.312v12.065c0,0.907,0.053,1.572,0.158,1.996c0.106,0.424,0.461,0.635,1.066,0.635
		c0.332,0,0.726-0.075,1.18-0.227v2.993C398.224,43.663,397.302,43.86,396.122,43.86z M390.725,32.044
		c-0.787,0.167-1.61,0.303-2.472,0.408c-0.862,0.106-1.731,0.228-2.608,0.363c-0.878,0.136-1.663,0.355-2.358,0.657
		c-0.696,0.303-1.264,0.734-1.701,1.293c-0.438,0.561-0.658,1.323-0.658,2.291c0,0.635,0.129,1.172,0.386,1.61
		s0.59,0.794,0.998,1.065c0.408,0.272,0.892,0.47,1.451,0.59c0.56,0.121,1.127,0.182,1.701,0.182c1.271,0,2.358-0.174,3.266-0.521
		s1.648-0.786,2.223-1.315s0.998-1.104,1.271-1.724s0.408-1.202,0.408-1.747v-3.945C392.146,31.613,391.511,31.879,390.725,32.044z"
		/>
	<path fill="#717073" d="M420.253,10.975l17.055,26.264h0.091V10.975h4.082v32.387h-4.717l-16.919-25.99h-0.091v25.99h-4.083V10.975
		H420.253z"/>
	<path fill="#717073" d="M464.432,41.864c-1.754,1.331-3.961,1.996-6.622,1.996c-1.875,0-3.5-0.303-4.876-0.907
		s-2.533-1.451-3.47-2.54c-0.938-1.089-1.641-2.389-2.109-3.901c-0.469-1.512-0.733-3.159-0.794-4.943
		c0-1.784,0.272-3.417,0.816-4.899c0.545-1.48,1.308-2.767,2.291-3.855c0.982-1.088,2.146-1.935,3.492-2.54
		c1.346-0.604,2.819-0.907,4.423-0.907c2.086,0,3.817,0.432,5.193,1.293c1.376,0.862,2.479,1.958,3.312,3.288
		c0.831,1.331,1.406,2.783,1.724,4.354c0.317,1.573,0.445,3.07,0.386,4.491h-17.555c-0.03,1.028,0.091,2.003,0.363,2.926
		s0.71,1.739,1.315,2.449c0.604,0.711,1.376,1.277,2.313,1.701c0.937,0.424,2.041,0.635,3.311,0.635
		c1.634,0,2.972-0.378,4.015-1.134s1.73-1.905,2.063-3.447h3.811C467.319,38.554,466.186,40.534,464.432,41.864z M463.502,26.806
		c-0.348-0.816-0.816-1.52-1.406-2.109c-0.589-0.59-1.285-1.059-2.086-1.406c-0.802-0.348-1.687-0.521-2.653-0.521
		c-0.998,0-1.898,0.174-2.699,0.521c-0.802,0.348-1.49,0.824-2.063,1.429c-0.575,0.605-1.028,1.309-1.361,2.109
		c-0.333,0.802-0.529,1.655-0.59,2.562h13.472C464.054,28.483,463.85,27.622,463.502,26.806z"/>
	<path fill="#717073" d="M482.213,19.911v3.401h-4.673v14.561c0,0.453,0.038,0.816,0.114,1.089c0.074,0.271,0.219,0.483,0.431,0.635
		c0.211,0.151,0.506,0.249,0.885,0.295c0.377,0.045,0.868,0.067,1.474,0.067h1.77v3.402h-2.949c-0.997,0-1.853-0.068-2.562-0.204
		c-0.711-0.136-1.285-0.386-1.724-0.748c-0.438-0.363-0.764-0.877-0.975-1.543c-0.212-0.664-0.318-1.542-0.318-2.631V23.312h-3.991
		v-3.401h3.991V12.88h3.855v7.031H482.213z"/>
	<path fill="#717073" d="M505.616,43.361l-4.762-18.643h-0.091l-4.718,18.643h-4.173l-7.529-23.45h4.264l5.307,19.187h0.091
		l4.717-19.187h4.219l4.898,19.187h0.091l5.262-19.187h3.992l-7.484,23.45H505.616z"/>
	<path fill="#717073" d="M520.312,26.828c0.483-1.497,1.209-2.797,2.178-3.901c0.967-1.104,2.161-1.973,3.583-2.607
		c1.421-0.636,3.054-0.953,4.898-0.953c1.875,0,3.516,0.317,4.922,0.953c1.406,0.635,2.593,1.504,3.561,2.607
		c0.968,1.104,1.693,2.404,2.178,3.901c0.483,1.497,0.726,3.107,0.726,4.831s-0.242,3.326-0.726,4.808
		c-0.484,1.482-1.21,2.774-2.178,3.878c-0.968,1.104-2.154,1.966-3.561,2.586c-1.406,0.619-3.047,0.93-4.922,0.93
		c-1.845,0-3.478-0.311-4.898-0.93c-1.422-0.62-2.616-1.481-3.583-2.586c-0.969-1.104-1.694-2.396-2.178-3.878
		c-0.483-1.481-0.726-3.084-0.726-4.808S519.829,28.325,520.312,26.828z M524.236,35.446c0.378,1.104,0.899,2.026,1.564,2.767
		c0.665,0.741,1.444,1.309,2.336,1.701c0.892,0.394,1.838,0.59,2.835,0.59c0.998,0,1.943-0.196,2.835-0.59
		c0.892-0.393,1.671-0.96,2.336-1.701c0.665-0.74,1.187-1.662,1.565-2.767c0.378-1.104,0.566-2.366,0.566-3.787
		c0-1.422-0.188-2.684-0.566-3.788c-0.379-1.104-0.9-2.033-1.565-2.789s-1.444-1.331-2.336-1.724s-1.837-0.59-2.835-0.59
		c-0.997,0-1.943,0.197-2.835,0.59s-1.671,0.968-2.336,1.724s-1.187,1.686-1.564,2.789c-0.379,1.104-0.567,2.366-0.567,3.788
		C523.669,33.08,523.857,34.343,524.236,35.446z"/>
	<path fill="#717073" d="M550.385,19.911v4.943h0.091c0.937-1.904,2.087-3.311,3.447-4.218s3.084-1.33,5.171-1.271v4.083
		c-1.542,0-2.857,0.212-3.946,0.635c-1.089,0.424-1.966,1.043-2.631,1.859s-1.149,1.808-1.451,2.971
		c-0.303,1.165-0.454,2.503-0.454,4.015v10.433h-3.855v-23.45H550.385z"/>
	<path fill="#717073" d="M566.079,10.975v19.188l10.705-10.251h5.171l-9.299,8.527l9.979,14.923h-4.898l-8.028-12.247l-3.629,3.356
		v8.891h-3.855V10.975H566.079z"/>
</g>
</svg>
