<?xml version="1.0" encoding="utf-8"?>
<!-- Generator: Adobe Illustrator 15.0.0, SVG Export Plug-In . SVG Version: 6.00 Build 0)  -->
<!DOCTYPE svg PUBLIC "-//W3C//DTD SVG 1.1//EN" "http://www.w3.org/Graphics/SVG/1.1/DTD/svg11.dtd">
<svg version="1.1" id="Layer_1" xmlns="http://www.w3.org/2000/svg" xmlns:xlink="http://www.w3.org/1999/xlink" x="0px" y="0px"
	 width="500px" height="500px" viewBox="0 0 500 500" enable-background="new 0 0 500 500" xml:space="preserve">
<g>
	<path fill="#FFFFFF" d="M333.72,131.04c-0.078-7.752-5.902-9.625-14.396-9.586c-3.691,0.019-9.238,0.05-9.238,0.05v41.815
		c0,0,7.121-0.666,11.519-1.1c7.736-0.779,12.206-2.218,12.115-7.884V131.04z"/>
	<polygon fill="#FFFFFF" points="168.401,373.845 195.224,370.54 181.977,317.699 	"/>
	<polygon fill="#FFFFFF" points="239.152,122.169 227.326,199.36 252.603,194.177 239.648,122.163 	"/>
	<path fill="#FFFFFF" d="M438.656,58.234c-13.403,0-26.675-12.018-26.675-12.018s-12.9,12.018-26.684,12.018
		c-13.777,0-26.681-12.018-26.681-12.018s-13.266,12.018-26.672,12.018c-13.4,0-26.668-12.018-26.668-12.018
		s-12.901,12.018-26.691,12.018c-13.779,0-26.674-12.018-26.674-12.018s-13.275,12.018-26.672,12.018
		c-13.41,0-26.684-12.018-26.684-12.018s-12.895,12.018-26.671,12.018c-13.79,0-26.681-12.018-26.681-12.018
		s-13.278,12.018-26.681,12.018c-13.4,0-26.678-12.018-26.678-12.018S78.953,58.234,65.17,58.234
		c-8.167,0-16.563-6.892-21.614-10.894v408.262h413.769V49.433C452.364,52.869,445.243,58.234,438.656,58.234z M145.688,108.681
		l53.415-0.006v13.388h-18.451v142.244l-16.378,3.882V122.062h-18.586V108.681z M78.542,239.221c6.549-1.275,9.825-1.916,16.4-3.197
		c-0.006,9.235-0.006,13.871-0.012,23.2c-0.007,8.337,3.226,12.533,10.453,10.818c6.729-1.596,9.979-7.294,9.989-15.461
		c0.006-9.706,0.006-21.14,0.016-30.626c0.003-5.861-1.241-10.033-4.73-15.329c-9.669-14.292-14.497-11.773-24.149-27.617
		c-4.485-7.262-6.973-13.143-6.973-22.365c0-8.669,0.003-16.34,0.003-25.016c0-17.704,9.235-26.442,25.958-26.442
		c18.47,0,25.952,8.896,25.943,24.551c0,8.732,0,12.992-0.006,21.442c-6.597,0.276-9.892,0.408-16.484,0.685
		c0.009-8.305,0.009-12.477,0.016-20.952c0.006-6.747-1.737-11.886-9.477-11.854c-7.734,0.031-9.486,5.233-9.49,12.106
		c-0.003,7.457-0.003,14.493-0.006,21.894c0,5.592,0.983,11.133,3.729,15.53c8.343,13.299,17.075,16.384,26.178,29.188
		c3.75,5.114,5.997,11.666,5.994,18.947c-0.01,10.372-0.01,22.271-0.016,33.058c-0.007,16.089-10.055,28.157-26.505,32.134
		c-18.197,4.392-26.829-1.759-26.829-19.978C78.542,254.054,78.542,249.109,78.542,239.221z M134.778,320.514l-19.799,4.536v89.73
		H98.337v-85.917l-19.795,4.536v-13.595l56.236-12.879V320.514z M206.34,414.912l-7.96-31.757l-33.218,4.09l-6.684,27.667h-16.642
		l28.899-115.368l16.598-4.009l-0.007,0.025l5.265-1.294l30.391,120.646H206.34z M218.794,255.027l-16.661,4.027l25.971-150.38
		h22.468l27.724,131.985l-16.616,4.014l-6.825-37.958l-29.59,6.069L218.794,255.027z M318.953,414.912c-11.273,0-30.51,0-30.51,0
		l-33.102-118.547l-0.612,0.125v118.422h-17.402l0.019-131.539c11.964-2.902,28.71-6.974,28.71-6.974l36.211,122.857
		c0,0,0.364-0.007,0.6-0.013V267.535c7.096-1.709,9.078-2.186,16.086-3.876V414.912z M334.279,180.513
		c-0.066-4.417-4.828-8.688-12.564-7.702c-4.395,0.565-11.629,1.602-11.629,1.602v58.4l-16.579,4.825V108.675c0,0,18.417,0,30.698,0
		c15.722-0.006,25.613,4.19,25.613,18.03c0,0-0.016,17.232,0.013,26.31c0.104,6.955-4.74,10.416-17.449,12.213
		c11.726-0.949,19.286,7.325,19.388,13.206c0,16.817,0,44.485,0,44.485l-17.49,4.467
		C334.279,227.385,334.559,197.814,334.279,180.513z M401.575,415.013l-43.652-64.802l-0.355,0.024l-0.013,64.777h-17.898V258.545
		l17.898-4.297v85.785l0.578-0.057l39.258-95.309l18.203-4.335l-42.631,104.116l46.746,70.563H401.575z M423.039,122.062h-17.942
		v87.983l-16.114,3.889v-91.872h-19.35v-13.394h53.406V122.062z"/>
</g>
</svg>
