<?xml version="1.0" encoding="utf-8"?>
<!-- Generator: Adobe Illustrator 15.0.0, SVG Export Plug-In . SVG Version: 6.00 Build 0)  -->
<!DOCTYPE svg PUBLIC "-//W3C//DTD SVG 1.1//EN" "http://www.w3.org/Graphics/SVG/1.1/DTD/svg11.dtd">
<svg version="1.1" id="Layer_1" xmlns="http://www.w3.org/2000/svg" xmlns:xlink="http://www.w3.org/1999/xlink" x="0px" y="0px"
	 width="500px" height="500px" viewBox="0 0 500 500" enable-background="new 0 0 500 500" xml:space="preserve">
<g id="Layer_1_1_" display="none">
	<g display="inline">
		<path fill="#636466" d="M333.721,131.04c-0.078-7.752-5.902-9.625-14.396-9.586c-3.691,0.019-9.238,0.05-9.238,0.05v41.815
			c0,0,7.121-0.666,11.52-1.1c7.735-0.779,12.205-2.218,12.115-7.884V131.04z"/>
		<polygon fill="#636466" points="168.401,373.845 195.224,370.54 181.977,317.699 		"/>
		<polygon fill="#636466" points="239.152,122.169 227.326,199.36 252.604,194.177 239.648,122.163 		"/>
		<path fill="#636466" d="M438.656,58.234c-13.403,0-26.675-12.018-26.675-12.018s-12.9,12.018-26.686,12.018
			c-13.776,0-26.681-12.018-26.681-12.018s-13.268,12.018-26.674,12.018c-13.398,0-26.668-12.018-26.668-12.018
			s-12.899,12.018-26.689,12.018c-13.777,0-26.674-12.018-26.674-12.018s-13.275,12.018-26.672,12.018
			c-13.41,0-26.684-12.018-26.684-12.018s-12.895,12.018-26.671,12.018c-13.79,0-26.681-12.018-26.681-12.018
			s-13.278,12.018-26.681,12.018c-13.4,0-26.678-12.018-26.678-12.018S78.953,58.234,65.17,58.234
			c-8.167,0-16.563-6.892-21.614-10.894v408.262h413.769V49.433C452.364,52.869,445.243,58.234,438.656,58.234z M145.688,108.681
			l53.415-0.006v13.388h-18.451v142.244l-16.378,3.883V122.062h-18.586V108.681L145.688,108.681z M78.542,239.221
			c6.549-1.275,9.825-1.916,16.4-3.197c-0.006,9.235-0.006,13.871-0.012,23.201c-0.007,8.336,3.226,12.532,10.453,10.817
			c6.729-1.597,9.979-7.294,9.989-15.461c0.006-9.706,0.006-21.14,0.016-30.626c0.003-5.861-1.241-10.033-4.73-15.329
			c-9.669-14.292-14.497-11.773-24.149-27.617c-4.485-7.262-6.973-13.143-6.973-22.365c0-8.669,0.003-16.34,0.003-25.016
			c0-17.704,9.235-26.442,25.958-26.442c18.47,0,25.952,8.896,25.943,24.551c0,8.732,0,12.992-0.006,21.442
			c-6.597,0.276-9.892,0.408-16.484,0.685c0.009-8.305,0.009-12.477,0.016-20.952c0.006-6.747-1.737-11.886-9.477-11.854
			c-7.734,0.031-9.486,5.233-9.49,12.106c-0.003,7.457-0.003,14.493-0.006,21.894c0,5.592,0.983,11.133,3.729,15.53
			c8.343,13.299,17.075,16.384,26.178,29.188c3.75,5.114,5.997,11.666,5.994,18.947c-0.01,10.372-0.01,22.271-0.016,33.058
			c-0.007,16.089-10.055,28.156-26.505,32.134c-18.197,4.392-26.829-1.759-26.829-19.978
			C78.542,254.055,78.542,249.109,78.542,239.221z M134.778,320.514l-19.799,4.536v89.73H98.337v-85.917l-19.795,4.536v-13.597
			l56.236-12.879V320.514z M206.34,414.912l-7.96-31.757l-33.218,4.09l-6.684,27.667h-16.642l28.899-115.368l16.598-4.009
			l-0.007,0.025l5.265-1.295l30.391,120.646L206.34,414.912L206.34,414.912z M218.794,255.027l-16.661,4.025l25.971-150.38h22.468
			l27.724,131.985l-16.616,4.014l-6.824-37.958l-29.589,6.069L218.794,255.027z M318.953,414.912c-11.273,0-30.51,0-30.51,0
			L255.34,296.365l-0.611,0.125v118.422h-17.401l0.019-131.539c11.964-2.902,28.71-6.975,28.71-6.975l36.211,122.856
			c0,0,0.362-0.007,0.6-0.013V267.535c7.096-1.709,9.078-2.186,16.086-3.876V414.912z M334.279,180.513
			c-0.066-4.417-4.828-8.688-12.564-7.702c-4.395,0.565-11.629,1.602-11.629,1.602v58.4l-16.579,4.825V108.675
			c0,0,18.417,0,30.698,0c15.722-0.006,25.613,4.19,25.613,18.03c0,0-0.018,17.232,0.013,26.31
			c0.104,6.955-4.74,10.416-17.449,12.213c11.726-0.949,19.286,7.325,19.388,13.206c0,16.817,0,44.485,0,44.485l-17.488,4.467
			C334.279,227.385,334.559,197.814,334.279,180.513z M401.575,415.013l-43.652-64.802l-0.354,0.024l-0.014,64.775h-17.896V258.545
			l17.896-4.297v85.785l0.578-0.059l39.258-95.309l18.203-4.335l-42.631,104.116l46.746,70.562h-18.134V415.013L401.575,415.013z
			 M423.039,122.062h-17.942v87.983l-16.114,3.889v-91.872h-19.35v-13.394h53.406V122.062z"/>
	</g>
</g>
<g id="Layer_2">
	<g>
		<path fill="#636466" d="M324.576,449.126c-0.339,0.009-0.858,0.018-0.858,0.018l-51.821-175.822c0,0-23.969,5.828-41.088,9.983
			l-0.027,188.247h24.904V302.075l0.874-0.178l47.375,169.653c0,0,27.528,0,43.663,0v-216.46
			c-10.029,2.419-12.867,3.102-23.021,5.547V449.126L324.576,449.126z"/>
		<path fill="#636466" d="M265.632,227.919l23.78-5.744L249.736,33.29h-32.155l-37.167,215.211l23.844-5.763l9.261-60.454
			l42.347-8.686L265.632,227.919z M216.468,163.071l16.924-110.469l0.709-0.008l18.541,103.059L216.468,163.071z"/>
		<path fill="#636466" d="M3.542,220.117c0,14.15,0,21.229,0.003,35.372c0,26.073,12.353,34.875,38.395,28.59
			c23.542-5.692,37.922-22.962,37.932-45.987c0.008-15.437,0.008-32.468,0.023-47.309c0.004-10.421-3.212-19.797-8.579-27.116
			c-13.027-18.324-25.523-22.74-37.463-41.771c-3.93-6.292-5.336-14.222-5.336-22.225c0.004-10.591,0.004-20.661,0.008-31.333
			c0.006-9.836,2.513-17.281,13.582-17.325c11.077-0.046,13.572,7.309,13.562,16.964c-0.01,12.128-0.01,18.099-0.022,29.984
			c9.434-0.396,14.149-0.584,23.59-0.98c0.008-12.093,0.008-18.189,0.008-30.686c0.014-22.404-10.695-35.135-37.127-35.135
			c-23.932,0-37.148,12.505-37.148,37.841c0,12.416-0.004,23.395-0.004,35.801c0,13.198,3.561,21.614,9.979,32.006
			c13.813,22.675,20.722,19.07,34.561,39.523c4.993,7.579,6.773,13.549,6.769,21.938c-0.014,13.575-0.014,29.938-0.023,43.829
			c-0.014,11.688-4.665,19.842-14.295,22.127c-10.342,2.454-14.969-3.552-14.959-15.481c0.008-13.352,0.008-19.986,0.017-33.202
			C17.603,217.375,12.914,218.292,3.542,220.117z"/>
		<polygon fill="#636466" points="3.542,354.897 31.871,348.404 31.871,471.361 55.688,471.361 55.688,342.947 84.022,336.456 
			84.022,317.009 3.542,335.44 		"/>
		<path fill="#636466" d="M159.224,300.745l0.01-0.034l-23.753,5.735L94.123,471.552h23.817l9.565-39.595l47.538-5.854
			l11.392,45.448h23.816l-43.493-172.657L159.224,300.745z M132.14,412.778l19.429-80.35l18.958,75.621L132.14,412.778z"/>
		<polygon fill="#636466" points="126.234,261.574 149.672,256.018 149.672,52.451 176.078,52.451 176.078,33.292 99.635,33.301 
			99.635,52.45 126.234,52.45 		"/>
		<polygon fill="#636466" points="420.125,52.45 447.816,52.45 447.816,183.929 470.877,178.363 470.877,52.45 496.555,52.45 
			496.555,33.282 420.125,33.282 		"/>
		<path fill="#636466" d="M394.561,196.787c0,0,0-39.596,0-63.663c-0.146-8.416-10.966-20.257-27.747-18.899
			c18.189-2.572,25.122-7.524,24.972-17.478c-0.041-12.992-0.017-37.652-0.017-37.652c0-19.807-14.158-25.812-36.655-25.803
			c-17.576,0-43.934,0-43.934,0v184.561l23.727-6.906V127.37c0,0,10.354-1.484,16.642-2.292
			c11.072-1.411,17.888,4.702,17.981,11.022c0.4,24.759,0,67.079,0,67.081L394.561,196.787z M351.393,109.918
			c-6.296,0.621-16.487,1.575-16.487,1.575V51.651c0,0,7.938-0.044,13.221-0.071c12.155-0.056,20.49,2.625,20.602,13.718v33.337
			C368.859,106.745,362.462,108.804,351.393,109.918z"/>
		<polygon fill="#636466" points="485.899,221.708 459.849,227.911 403.667,364.309 402.839,364.391 402.839,241.622 
			377.226,247.771 377.226,471.693 402.839,471.693 402.858,378.991 403.366,378.956 465.838,471.694 465.838,471.691 
			491.789,471.691 424.89,370.709 		"/>
	</g>
</g>
</svg>
